<?xml version="1.0" encoding="utf-8"?>
<!-- Generator: Adobe Illustrator 16.0.3, SVG Export Plug-In . SVG Version: 6.00 Build 0)  -->
<!DOCTYPE svg PUBLIC "-//W3C//DTD SVG 1.1//EN" "http://www.w3.org/Graphics/SVG/1.1/DTD/svg11.dtd">
<svg version="1.1" id="Warstwa_1" xmlns="http://www.w3.org/2000/svg" xmlns:xlink="http://www.w3.org/1999/xlink" x="0px" y="0px"
	 width="220px" height="220px" viewBox="1 2 220 220" enable-background="new 1 2 220 220" xml:space="preserve">
<path fill="#FFFFFF" d="M34.213,216.987C34.206,215.326,34.199,216.519,34.213,216.987L34.213,216.987z"/>
<path fill="#FFFFFF" d="M187.784,218.287C187.805,217.832,187.793,215.129,187.784,218.287L187.784,218.287z"/>
<circle fill="#FFFFFF" cx="110.998" cy="99" r="49.166"/>
<path fill="#FFFFFF" d="M187.697,214.994c-0.687-43.375-5.926-58.432-42.967-67.243c-8.805,8.311-20.669,13.415-33.732,13.415
	c-13.063,0-24.927-5.104-33.732-13.415c-36.597,8.707-42.148,23.511-42.938,65.7c-0.07,3.776-0.104,3.975-0.117,3.536
	c0.003,0.821,0.007,2.342,0.007,4.992c0,0,0.004,0.008,0.011,0.021h153.541c0.006-0.013,0.01-0.021,0.01-0.021
	c0-1.703,0-2.887,0.004-3.692C187.771,218.559,187.746,218.033,187.697,214.994z"/>
</svg>
