<?xml version="1.0" encoding="utf-8"?>
<svg xmlns="http://www.w3.org/2000/svg"
	xmlns:xlink="http://www.w3.org/1999/xlink"
	width="25px" height="16px" viewBox="0 0 25 16">
<path fillRule="evenodd" d="M 24.1 3.65C 24.1 3.65 24.1 14.51 24.1 14.51 24.1 14.51 17.58 8.71 17.58 8.71 17.58 8.71 24.1 3.65 24.1 3.65ZM 0.93 2.2C 0.93 2.2 0.93 0.03 0.93 0.03 0.93 0.03 24.1 0.03 24.1 0.03 24.1 0.03 24.1 2.2 24.1 2.2 24.1 2.2 12.52 11.61 12.52 11.61 12.52 11.61 0.93 2.2 0.93 2.2ZM 0.93 14.51C 0.93 14.51 0.93 3.65 0.93 3.65 0.93 3.65 7.45 8.71 7.45 8.71 7.45 8.71 0.93 14.51 0.93 14.51ZM 12.52 13.06C 12.52 13.06 16.86 9.44 16.86 9.44 16.86 9.44 24.1 15.96 24.1 15.96 24.1 15.96 0.93 15.96 0.93 15.96 0.93 15.96 8.17 9.44 8.17 9.44 8.17 9.44 12.52 13.06 12.52 13.06Z" fill="rgb(235,235,235)"/></svg>