<svg xmlns="http://www.w3.org/2000/svg" xmlns:xlink="http://www.w3.org/1999/xlink" width="389" height="416" viewBox="0 0 389 416"><defs><path id="r7wea" d="M598.3 1529.51H567a157.3 157.3 0 0 1-12.46 32.43l21.95 23.51c10.14 10.86 10.14 28.46 0 39.31l-18.35 19.66c-10.14 10.86-26.58 10.86-36.71 0l-21.96-23.5a136.02 136.02 0 0 1-30.28 13.33v33.53c0 15.27-11.56 27.65-25.82 27.65h-25.82c-14.27 0-25.83-12.38-25.83-27.65v-33.53a136.02 136.02 0 0 1-31.28-14l-22.57 24.17c-10.13 10.86-26.57 10.86-36.7 0l-18.36-19.66c-10.14-10.85-10.14-28.45 0-39.31l22.96-24.58a157.57 157.57 0 0 1-11.85-31.36h-31.3c-14.27 0-25.83-12.38-25.83-27.65v-27.65c0-15.28 11.56-27.66 25.82-27.66h31.31a157.36 157.36 0 0 1 12.46-32.43l-23.57-25.24c-10.14-10.85-10.14-28.45 0-39.3l18.35-19.67c10.14-10.85 26.58-10.85 36.71 0l23.57 25.24a136.05 136.05 0 0 1 30.28-13.34v-33.52c0-15.28 11.56-27.66 25.83-27.66h25.82c14.26 0 25.82 12.38 25.82 27.66v33.52a136 136 0 0 1 29.28 12.7l22.96-24.6c10.13-10.85 26.57-10.85 36.7 0l18.36 19.66c10.14 10.86 10.14 28.46 0 39.31l-22.56 24.17a157.02 157.02 0 0 1 13.07 33.5h31.3c14.27 0 25.83 12.38 25.83 27.66v27.65c0 15.27-11.56 27.65-25.83 27.65zM353 1488.03c0 45.82 34.68 82.96 77.47 82.96 42.78 0 77.46-37.14 77.46-82.96 0-45.81-34.68-82.96-77.46-82.96-42.79 0-77.47 37.15-77.47 82.96zm77.47-41.48c21.4 0 38.73 18.57 38.73 41.48 0 22.91-17.34 41.48-38.73 41.48-21.4 0-38.74-18.57-38.74-41.48 0-22.9 17.35-41.48 38.74-41.48z"/></defs><g><g transform="translate(-236 -1280)"><use fill="#fff" xlink:href="#r7wea"/></g></g></svg>