<?xml version="1.0" encoding="utf-8"?>
<!-- Generator: Adobe Illustrator 16.0.0, SVG Export Plug-In . SVG Version: 6.00 Build 0)  -->
<!DOCTYPE svg PUBLIC "-//W3C//DTD SVG 1.1//EN" "http://www.w3.org/Graphics/SVG/1.1/DTD/svg11.dtd">
<svg version="1.1" id="Warstwa_1" xmlns="http://www.w3.org/2000/svg" xmlns:xlink="http://www.w3.org/1999/xlink" x="0px" y="0px"
	 width="56px" height="51px" viewBox="0 0 56 51" enable-background="new 0 0 56 51" xml:space="preserve">
<g>
	<g>
		<path fill="#1D1D1B" d="M52.667,11.055C50.22,5.555,45.021,2,39.424,2C33.754,2,30.112,4.529,28,7.228
			C25.888,4.529,22.247,2,16.576,2C10.98,2,5.781,5.555,3.333,11.055c-2.531,5.685-1.415,12.014,2.984,16.931
			C16.97,39.893,26.383,48.333,26.476,48.417C26.91,48.805,27.455,49,28,49s1.091-0.195,1.525-0.584
			c0.094-0.084,9.506-8.523,20.157-20.431C54.082,23.069,55.198,16.739,52.667,11.055z M46.272,24.918
			C38.304,33.826,31.052,40.751,28,43.59c-3.052-2.839-10.304-9.765-18.272-18.672c-3.204-3.581-4.01-7.951-2.211-11.991
			c1.687-3.789,5.327-6.333,9.06-6.333c7.383,0,9.039,5.501,9.199,6.111c0.251,1.028,1.17,1.75,2.225,1.75
			c1.056,0,1.976-0.723,2.226-1.75c0.062-0.25,1.578-6.111,9.198-6.111c3.733,0,7.374,2.544,9.061,6.333
			C50.282,16.967,49.477,21.338,46.272,24.918z M39.4,9.097c-1.257-0.174-2.408,0.709-2.579,1.965
			c-0.171,1.257,0.707,2.415,1.961,2.586c0.118,0.017,2.939,0.448,3.208,4.49c0.079,1.213,1.086,2.144,2.283,2.144
			c0.051,0,0.102-0.001,0.153-0.004c1.263-0.085,2.218-1.178,2.134-2.444C46.15,11.641,41.698,9.411,39.4,9.097z M41.501,21.275
			c-0.602,0-1.191,0.247-1.621,0.672c-0.425,0.424-0.67,1.016-0.67,1.625c0,0.602,0.245,1.193,0.67,1.624
			c0.43,0.426,1.02,0.673,1.621,0.673c0.601,0,1.19-0.248,1.62-0.673c0.424-0.43,0.671-1.022,0.671-1.624
			c0-0.61-0.247-1.202-0.671-1.625C42.691,21.522,42.102,21.275,41.501,21.275z"/>
	</g>
</g>
<g>
	<g>
		<path fill="#1D1D1B" d="M41.326-76.562h-30.48c-2.612,0-4.3,1.614-4.3,4.113v42.436c0,2.499,1.688,4.113,4.3,4.113h30.48
			c2.613,0,4.301-1.614,4.301-4.113v-42.436C45.627-74.948,43.939-76.562,41.326-76.562z M42.342-30.014
			c0,0.461,0,0.823-1.016,0.823h-30.48c-1.016,0-1.016-0.362-1.016-0.823v-42.436c0-0.46,0-0.823,1.016-0.823h30.48
			c1.016,0,1.016,0.363,1.016,0.823V-30.014z M39.135-70.627H13.038c-0.604,0-1.095,0.492-1.095,1.096v33.122
			c0,0.604,0.49,1.097,1.095,1.097h26.097c0.604,0,1.095-0.492,1.095-1.097v-33.122C40.229-70.135,39.739-70.627,39.135-70.627z
			 M38.04-37.506H14.133v-30.928H38.04V-37.506z M24.729-33.548c-0.355,0.356-0.559,0.851-0.559,1.359
			c0,0.505,0.203,0.998,0.559,1.355c0.355,0.355,0.849,0.564,1.357,0.564c0.504,0,0.997-0.209,1.353-0.564
			c0.356-0.357,0.564-0.851,0.564-1.355c0-0.504-0.208-1.003-0.564-1.359C26.728-34.26,25.441-34.26,24.729-33.548z"/>
	</g>
</g>
<path fill="#1D1D1B" d="M82.828,27.027c-0.557,0-1.12-0.148-1.631-0.458c-1.491-0.901-1.969-2.842-1.066-4.333l7.236-11.955
	c0.545-0.9,1.504-1.472,2.557-1.519c1.038-0.048,2.057,0.432,2.683,1.28l2.938,3.984l6.426-10.754
	c0.539-0.901,1.488-1.475,2.535-1.533c1.06-0.057,2.056,0.41,2.69,1.245l5.572,7.349l14.881-24.35
	c0.91-1.488,2.852-1.958,4.338-1.048c1.488,0.909,1.957,2.852,1.047,4.339l-17.295,28.298c-0.543,0.892-1.492,1.454-2.533,1.507
	c-1.031,0.054-2.043-0.414-2.674-1.246l-5.542-7.31l-6.462,10.813c-0.542,0.907-1.501,1.483-2.556,1.533
	c-1.044,0.06-2.065-0.429-2.692-1.279l-2.955-4.007l-4.794,7.92C84.938,26.484,83.896,27.027,82.828,27.027z"/>
</svg>
