<?xml version="1.0" encoding="utf-8"?>
<svg xmlns="http://www.w3.org/2000/svg"
	xmlns:xlink="http://www.w3.org/1999/xlink"
	width="29px" height="39px" viewBox="0 0 29 39">
<path fillRule="evenodd" d="M 25.47 38.1C 25.47 38.1 4.47 38.1 4.47 38.1 2.54 38.1 0.97 36.54 0.97 34.6 0.97 34.6 0.97 21.77 0.97 21.77 0.97 19.84 2.54 18.27 4.47 18.27 4.47 18.27 5.64 18.27 5.64 18.27 5.64 18.27 5.64 8.94 5.64 8.94 5.64 4.43 9.81 0.77 14.97 0.77 20.12 0.77 24.3 4.43 24.3 8.94 24.3 8.94 24.3 18.27 24.3 18.27 24.3 18.27 25.47 18.27 25.47 18.27 27.4 18.27 28.97 19.84 28.97 21.77 28.97 21.77 28.97 34.6 28.97 34.6 28.97 36.54 27.4 38.1 25.47 38.1ZM 19.63 8.94C 19.63 7.01 17.55 5.44 14.97 5.44 12.39 5.44 10.3 7.01 10.3 8.94 10.3 8.94 10.3 17.11 10.3 17.11 10.3 17.52 10.41 17.91 10.59 18.27 10.59 18.27 19.35 18.27 19.35 18.27 19.52 17.91 19.63 17.52 19.63 17.11 19.63 17.11 19.63 8.94 19.63 8.94ZM 14.97 21.77C 12.39 21.77 10.3 23.86 10.3 26.44 10.3 28.16 11.25 29.65 12.63 30.46 12.63 30.46 12.63 32.27 12.63 32.27 12.63 33.56 13.68 34.6 14.97 34.6 16.26 34.6 17.3 33.56 17.3 32.27 17.3 32.27 17.3 30.46 17.3 30.46 18.69 29.65 19.63 28.16 19.63 26.44 19.63 23.86 17.55 21.77 14.97 21.77Z" fill="rgb(0,0,0)"/></svg>