<?xml version="1.0" encoding="utf-8"?>
<svg xmlns="http://www.w3.org/2000/svg"
	xmlns:xlink="http://www.w3.org/1999/xlink"
	width="50px" height="48px" viewBox="0 0 50 48">
<path fillRule="evenodd" d="M 39.25 47.08C 38.84 47.08 38.43 46.97 38.07 46.73 38.07 46.73 25.4 38.5 25.4 38.5 25.4 38.5 12.72 46.73 12.72 46.73 11.96 47.22 10.98 47.2 10.25 46.66 9.53 46.12 9.21 45.19 9.45 44.32 9.45 44.32 13.42 30.22 13.42 30.22 13.42 30.22 1.57 20.18 1.57 20.18 0.9 19.61 0.64 18.69 0.91 17.85 1.18 17.02 1.94 16.43 2.82 16.36 2.82 16.36 17.03 15.34 17.03 15.34 17.03 15.34 23.42 1.32 23.42 1.32 23.78 0.55 24.55 0.05 25.4 0.05 26.24 0.05 27.01 0.55 27.37 1.32 27.37 1.32 33.76 15.34 33.76 15.34 33.76 15.34 47.97 16.36 47.97 16.36 48.85 16.43 49.61 17.02 49.88 17.85 50.15 18.69 49.89 19.61 49.22 20.18 49.22 20.18 37.37 30.22 37.37 30.22 37.37 30.22 41.34 44.32 41.34 44.32 41.58 45.19 41.27 46.12 40.54 46.66 40.16 46.94 39.71 47.08 39.25 47.08ZM 25.4 33.75C 25.81 33.75 26.22 33.86 26.57 34.1 26.57 34.1 35.61 39.96 35.61 39.96 35.61 39.96 32.82 30.05 32.82 30.05 32.59 29.24 32.86 28.36 33.5 27.81 33.5 27.81 42.36 20.31 42.36 20.31 42.36 20.31 32.17 19.57 32.17 19.57 31.38 19.52 30.68 19.03 30.35 18.31 30.35 18.31 25.4 7.44 25.4 7.44 25.4 7.44 20.44 18.31 20.44 18.31 20.11 19.03 19.41 19.52 18.62 19.57 18.62 19.57 8.43 20.31 8.43 20.31 8.43 20.31 17.29 27.81 17.29 27.81 17.93 28.36 18.2 29.24 17.97 30.05 17.97 30.05 15.18 39.96 15.18 39.96 15.18 39.96 24.22 34.1 24.22 34.1 24.57 33.86 24.98 33.75 25.4 33.75Z" fill="rgb(119,119,119)"/></svg>