<?xml version="1.0" encoding="utf-8"?>
<svg xmlns="http://www.w3.org/2000/svg"
	xmlns:xlink="http://www.w3.org/1999/xlink"
	width="35px" height="47px" viewBox="0 0 35 47">
<path fillRule="evenodd" d="M 31.13 46.14C 29.14 46.14 27.54 44.53 27.54 42.55 27.54 42.55 27.54 3.82 27.54 3.82 27.54 1.84 29.14 0.24 31.13 0.24 33.11 0.24 34.72 1.84 34.72 3.82 34.72 3.82 34.72 42.55 34.72 42.55 34.72 44.53 33.11 46.14 31.13 46.14ZM 17.68 46.14C 15.69 46.14 14.09 44.53 14.09 42.55 14.09 42.55 14.09 16.6 14.09 16.6 14.09 14.62 15.69 13.02 17.68 13.02 19.66 13.02 21.27 14.62 21.27 16.6 21.27 16.6 21.27 42.55 21.27 42.55 21.27 44.53 19.66 46.14 17.68 46.14ZM 4.23 46.14C 2.24 46.14 0.63 44.53 0.63 42.55 0.63 42.55 0.63 29.38 0.63 29.38 0.63 27.4 2.24 25.8 4.23 25.8 6.21 25.8 7.82 27.4 7.82 29.38 7.82 29.38 7.82 42.55 7.82 42.55 7.82 44.53 6.21 46.14 4.23 46.14Z" fill="rgb(119,119,119)"/></svg>