<?xml version="1.0" encoding="utf-8"?>
<svg xmlns="http://www.w3.org/2000/svg"
	xmlns:xlink="http://www.w3.org/1999/xlink"
	width="39px" height="40px" viewBox="0 0 39 40">
<path fillRule="evenodd" d="M 35.28 17.01C 35.28 17.01 3.62 17.01 3.62 17.01 1.72 17.01 0.17 15.47 0.17 13.57 0.17 11.67 1.72 10.13 3.62 10.13 3.62 10.13 7.51 10.13 7.51 10.13 7.57 9.91 7.65 9.69 7.77 9.49 7.77 9.49 11.9 2.33 11.9 2.33 12.66 1.02 14.35 0.56 15.66 1.32 16.98 2.09 17.43 3.77 16.67 5.09 16.67 5.09 13.76 10.13 13.76 10.13 13.76 10.13 25.14 10.13 25.14 10.13 25.14 10.13 22.23 5.09 22.23 5.09 21.47 3.77 21.92 2.09 23.23 1.32 24.55 0.56 26.23 1.02 26.99 2.33 26.99 2.33 31.12 9.49 31.12 9.49 31.24 9.69 31.32 9.91 31.38 10.13 31.38 10.13 35.28 10.13 35.28 10.13 37.18 10.13 38.72 11.67 38.72 13.57 38.72 15.47 37.18 17.01 35.28 17.01ZM 34.7 39.04C 34.7 39.04 4.2 39.04 4.2 39.04 4.2 39.04 3.01 18.39 3.01 18.39 3.01 18.39 35.89 18.39 35.89 18.39 35.89 18.39 34.7 39.04 34.7 39.04ZM 12.56 25.27C 12.56 24.51 11.95 23.9 11.19 23.9 10.43 23.9 9.81 24.51 9.81 25.27 9.81 25.27 9.81 33.53 9.81 33.53 9.81 34.29 10.43 34.91 11.19 34.91 11.95 34.91 12.56 34.29 12.56 33.53 12.56 33.53 12.56 25.27 12.56 25.27ZM 20.82 25.27C 20.82 24.51 20.21 23.9 19.45 23.9 18.69 23.9 18.07 24.51 18.07 25.27 18.07 25.27 18.07 33.53 18.07 33.53 18.07 34.29 18.69 34.91 19.45 34.91 20.21 34.91 20.82 34.29 20.82 33.53 20.82 33.53 20.82 25.27 20.82 25.27ZM 29.08 25.27C 29.08 24.51 28.47 23.9 27.71 23.9 26.95 23.9 26.33 24.51 26.33 25.27 26.33 25.27 26.33 33.53 26.33 33.53 26.33 34.29 26.95 34.91 27.71 34.91 28.47 34.91 29.08 34.29 29.08 33.53 29.08 33.53 29.08 25.27 29.08 25.27Z" fill="rgb(0,0,0)"/></svg>