<?xml version="1.0" encoding="utf-8"?>
<svg xmlns="http://www.w3.org/2000/svg"
	xmlns:xlink="http://www.w3.org/1999/xlink"
	width="41px" height="34px" viewBox="0 0 41 34">
<path fillRule="evenodd" d="M 36.51 33.82C 36.51 33.82 4.22 33.82 4.22 33.82 2.74 33.82 0.19 32.61 0.19 31.13 0.19 29.64 1.39 28.44 2.88 28.44 2.88 28.44 37.86 28.44 37.86 28.44 39.34 28.44 40.55 29.64 40.55 31.13 40.55 32.61 38 33.82 36.51 33.82ZM 24.4 31.13C 24.4 31.13 16.33 31.13 16.33 31.13 15.59 31.13 14.99 31.43 14.99 31.8 14.99 32.17 15.59 32.47 16.33 32.47 16.33 32.47 24.4 32.47 24.4 32.47 25.15 32.47 25.75 32.17 25.75 31.8 25.75 31.43 25.15 31.13 24.4 31.13ZM 15.12 14.06C 15.12 14.06 17.61 16.56 17.61 16.56 17.61 16.56 25.61 8.52 25.61 8.52 26.13 7.99 26.98 7.99 27.5 8.52 27.5 8.52 29.4 10.42 29.4 10.42 29.92 10.95 29.92 11.8 29.4 12.33 29.4 12.33 18.98 22.79 18.98 22.79 18.53 23.24 17.85 23.28 17.34 22.96 16.9 23.07 16.41 22.97 16.07 22.63 16.07 22.63 11.33 17.87 11.33 17.87 10.81 17.34 10.81 16.49 11.33 15.97 11.33 15.97 13.23 14.06 13.23 14.06 13.75 13.54 14.6 13.54 15.12 14.06ZM 33.82 4.22C 33.82 4.22 6.91 4.22 6.91 4.22 6.91 4.22 6.91 25.75 6.91 25.75 6.91 25.75 2.88 25.75 2.88 25.75 2.88 25.75 2.88 23.05 2.88 23.05 2.88 23.05 3.13 23.05 3.13 23.05 2.97 22.63 2.88 22.18 2.88 21.71 2.88 21.71 2.88 4.22 2.88 4.22 2.88 1.99 4.68 0.18 6.91 0.18 6.91 0.18 33.82 0.18 33.82 0.18 36.05 0.18 37.86 1.99 37.86 4.22 37.86 4.22 37.86 21.71 37.86 21.71 37.86 22.18 37.76 22.63 37.61 23.05 37.61 23.05 37.86 23.05 37.86 23.05 37.86 23.05 37.86 25.75 37.86 25.75 37.86 25.75 33.82 25.75 33.82 25.75 33.82 25.75 33.82 4.22 33.82 4.22Z" fill="rgb(0,0,0)"/></svg>