<?xml version="1.0" encoding="utf-8"?>
<svg xmlns="http://www.w3.org/2000/svg"
	xmlns:xlink="http://www.w3.org/1999/xlink"
	width="47px" height="47px" viewBox="0 0 47 47">
<path fillRule="evenodd" d="M 46.63 2.34C 46.64 1.72 46.36 1.12 45.88 0.73 45.4 0.34 44.76 0.19 44.15 0.32 44.15 0.32 17.2 6.08 17.2 6.08 16.26 6.28 15.58 7.11 15.57 8.07 15.57 8.07 15.39 32.22 15.39 32.22 13.89 31.33 12.07 30.8 10.1 30.78 10.1 30.78 10.02 30.78 10.02 30.78 4.88 30.78 0.68 34.35 0.65 38.73 0.61 43.15 4.8 46.79 9.98 46.83 9.98 46.83 10.07 46.83 10.07 46.83 15.2 46.83 19.4 43.26 19.44 38.88 19.44 38.88 19.44 38.88 19.44 38.88 19.44 38.88 19.44 38.88 19.44 38.88 19.44 38.88 19.6 17.82 19.6 17.82 19.6 17.82 42.45 12.93 42.45 12.93 42.45 12.93 42.35 26.46 42.35 26.46 40.85 25.57 39.03 25.03 37.06 25.02 37.06 25.02 36.97 25.02 36.97 25.02 31.84 25.02 27.64 28.58 27.6 32.97 27.57 37.39 31.76 41.02 36.94 41.06 36.94 41.06 37.02 41.06 37.02 41.06 41.76 41.06 45.69 38.03 46.31 34.12 46.36 33.94 46.39 33.76 46.39 33.57 46.39 33.57 46.63 2.34 46.63 2.34ZM 10.07 42.72C 10.07 42.72 10.01 42.72 10.01 42.72 7.14 42.7 4.73 40.89 4.75 38.76 4.76 36.62 7.13 34.88 10.02 34.88 10.02 34.88 10.07 34.88 10.07 34.88 12.94 34.91 15.35 36.72 15.34 38.85 15.32 40.98 12.96 42.72 10.07 42.72ZM 19.62 14.67C 19.62 14.67 19.66 9.75 19.66 9.75 19.66 9.75 42.51 4.86 42.51 4.86 42.51 4.86 42.48 9.78 42.48 9.78 42.48 9.78 19.62 14.67 19.62 14.67ZM 37.02 36.96C 37.02 36.96 36.97 36.96 36.97 36.96 34.1 36.94 31.69 35.12 31.7 33 31.72 30.86 34.08 29.12 36.97 29.12 36.97 29.12 37.03 29.12 37.03 29.12 39.9 29.14 42.31 30.96 42.3 33.08 42.28 35.22 39.92 36.96 37.02 36.96Z" fill="rgb(119,119,119)"/></svg>