<?xml version="1.0" encoding="utf-8"?>
<svg xmlns="http://www.w3.org/2000/svg"
	xmlns:xlink="http://www.w3.org/1999/xlink"
	width="33px" height="32px" viewBox="0 0 33 32">
<path fillRule="evenodd" d="M 0.97 15.7C 0.97 24.36 8.01 31.4 16.67 31.4 25.32 31.4 32.37 24.36 32.37 15.7 32.37 7.05 25.32 0 16.67 0 8.01 0 0.97 7.05 0.97 15.7ZM 2.22 15.7C 2.22 7.74 8.7 1.26 16.67 1.26 24.63 1.26 31.11 7.74 31.11 15.7 31.11 23.67 24.63 30.15 16.67 30.15 8.7 30.15 2.22 23.67 2.22 15.7Z" fill="rgb(203,203,203)"/><path fillRule="evenodd" d="M 15.2 22.03C 14.93 22.03 14.67 21.93 14.46 21.73 14.46 21.73 10.15 17.42 10.15 17.42 9.75 17.02 9.75 16.36 10.15 15.96 10.55 15.55 11.21 15.55 11.61 15.96 11.61 15.96 15.2 19.54 15.2 19.54 15.2 19.54 23.78 10.95 23.78 10.95 24.19 10.55 24.84 10.55 25.25 10.95 25.65 11.36 25.65 12.01 25.25 12.42 25.25 12.42 15.93 21.73 15.93 21.73 15.72 21.93 15.46 22.03 15.2 22.03Z" fill="rgb(203,203,203)"/></svg>