<?xml version="1.0" encoding="utf-8"?>
<svg xmlns="http://www.w3.org/2000/svg"
	xmlns:xlink="http://www.w3.org/1999/xlink"
	width="18px" height="21px" viewBox="0 0 18 21">
<path fillRule="evenodd" d="M 0.43 18.59C 0.43 19.94 0.52 20.84 1.7 20.16 1.7 20.16 6.61 17.1 6.61 17.1 7.78 16.41 9.71 15.3 10.88 14.61 10.88 14.61 16.16 11.55 16.16 11.55 17.33 10.87 17.35 9.75 16.18 9.07 16.18 9.07 10.96 6 10.96 6 9.79 5.32 7.95 4.2 6.78 3.52 6.78 3.52 1.69 0.46 1.69 0.46 0.52-0.23 0.43 0.67 0.43 2.03 0.43 2.03 0.43 18.59 0.43 18.59Z" fill="rgb(235,235,235)"/></svg>