<?xml version="1.0" encoding="utf-8"?>
<svg xmlns="http://www.w3.org/2000/svg"
	xmlns:xlink="http://www.w3.org/1999/xlink"
	width="26px" height="21px" viewBox="0 0 26 21">
<path fillRule="evenodd" d="M 22.71 20.21C 22.71 20.21 2.74 20.21 2.74 20.21 1.36 20.21 0.24 19.09 0.24 17.71 0.24 17.71 0.24 2.73 0.24 2.73 0.24 1.35 1.36 0.23 2.74 0.23 2.74 0.23 22.71 0.23 22.71 0.23 24.09 0.23 25.21 1.35 25.21 2.73 25.21 2.73 25.21 17.71 25.21 17.71 25.21 19.09 24.09 20.21 22.71 20.21ZM 11.89 6.06C 11.89 5.6 11.52 5.22 11.06 5.22 11.06 5.22 2.74 5.22 2.74 5.22 2.28 5.22 1.91 5.6 1.91 6.06 1.91 6.06 1.91 14.38 1.91 14.38 1.91 14.84 2.28 15.21 2.74 15.21 2.74 15.21 11.06 15.21 11.06 15.21 11.52 15.21 11.89 14.84 11.89 14.38 11.89 14.38 11.89 6.06 11.89 6.06ZM 22.71 6.06C 22.71 6.06 15.22 6.06 15.22 6.06 14.76 6.06 14.39 6.43 14.39 6.89 14.39 7.35 14.76 7.72 15.22 7.72 15.22 7.72 22.71 7.72 22.71 7.72 23.17 7.72 23.55 7.35 23.55 6.89 23.55 6.43 23.17 6.06 22.71 6.06ZM 22.71 9.39C 22.71 9.39 15.22 9.39 15.22 9.39 14.76 9.39 14.39 9.76 14.39 10.22 14.39 10.68 14.76 11.05 15.22 11.05 15.22 11.05 22.71 11.05 22.71 11.05 23.17 11.05 23.55 10.68 23.55 10.22 23.55 9.76 23.17 9.39 22.71 9.39ZM 22.71 12.72C 22.71 12.72 15.22 12.72 15.22 12.72 14.76 12.72 14.39 13.09 14.39 13.55 14.39 14.01 14.76 14.38 15.22 14.38 15.22 14.38 22.71 14.38 22.71 14.38 23.17 14.38 23.55 14.01 23.55 13.55 23.55 13.09 23.17 12.72 22.71 12.72Z" fill="rgb(235,235,235)"/></svg>