<?xml version="1.0" encoding="utf-8"?>
<svg xmlns="http://www.w3.org/2000/svg"
	xmlns:xlink="http://www.w3.org/1999/xlink"
	width="20px" height="31px" viewBox="0 0 20 31">
<path fillRule="evenodd" d="M 17.65 30.68C 17.65 30.68 2.72 30.68 2.72 30.68 1.69 30.68 0.86 29.84 0.86 28.81 0.86 28.81 0.86 2.69 0.86 2.69 0.86 1.66 1.69 0.82 2.72 0.82 2.72 0.82 17.65 0.82 17.65 0.82 18.68 0.82 19.52 1.66 19.52 2.69 19.52 2.69 19.52 28.81 19.52 28.81 19.52 29.84 18.68 30.68 17.65 30.68ZM 10.19 29.74C 10.7 29.74 11.12 29.33 11.12 28.81 11.12 28.3 10.7 27.88 10.19 27.88 9.67 27.88 9.25 28.3 9.25 28.81 9.25 29.33 9.67 29.74 10.19 29.74ZM 14.38 2.69C 14.38 2.69 5.99 2.69 5.99 2.69 5.73 2.69 5.52 2.9 5.52 3.16 5.52 3.41 5.73 3.62 5.99 3.62 5.99 3.62 14.38 3.62 14.38 3.62 14.64 3.62 14.85 3.41 14.85 3.16 14.85 2.9 14.64 2.69 14.38 2.69ZM 17.65 5.49C 17.65 5.49 2.72 5.49 2.72 5.49 2.72 5.49 2.72 26.95 2.72 26.95 2.72 26.95 17.65 26.95 17.65 26.95 17.65 26.95 17.65 5.49 17.65 5.49Z" fill="rgb(235,235,235)"/></svg>