<?xml version="1.0" encoding="utf-8"?>
<svg xmlns="http://www.w3.org/2000/svg"
	xmlns:xlink="http://www.w3.org/1999/xlink"
	width="26px" height="23px" viewBox="0 0 26 23">
<path fillRule="evenodd" d="M 23.63 22.32C 23.63 22.32 1.58 22.32 1.58 22.32 0.71 22.32 0 21.61 0 20.74 0 20.74 0 1.84 0 1.84 0 0.97 0.71 0.27 1.58 0.27 1.58 0.27 23.63 0.27 23.63 0.27 24.5 0.27 25.21 0.97 25.21 1.84 25.21 1.84 25.21 20.74 25.21 20.74 25.21 21.61 24.5 22.32 23.63 22.32ZM 22.85 4.2C 22.85 3.33 22.14 2.63 21.27 2.63 21.27 2.63 3.94 2.63 3.94 2.63 3.07 2.63 2.37 3.33 2.37 4.2 2.37 4.2 2.37 18.38 2.37 18.38 2.37 19.25 3.07 19.96 3.94 19.96 3.94 19.96 21.27 19.96 21.27 19.96 22.14 19.96 22.85 19.25 22.85 18.38 22.85 18.38 22.85 4.2 22.85 4.2ZM 7.88 12.08C 7.88 12.08 11.03 16.02 11.03 16.02 11.03 16.02 11.82 16.02 11.82 16.02 11.82 16.02 17.33 4.99 17.33 4.99 17.33 4.99 22.06 18.38 22.06 18.38 22.06 18.38 3.15 18.38 3.15 18.38 3.15 18.38 7.88 12.08 7.88 12.08ZM 7.49 9.72C 5.96 9.72 4.73 8.48 4.73 6.96 4.73 5.44 5.96 4.2 7.49 4.2 9.01 4.2 10.24 5.44 10.24 6.96 10.24 8.48 9.01 9.72 7.49 9.72Z" fill="rgb(235,235,235)"/></svg>