<?xml version="1.0" encoding="utf-8"?>
<!-- Generator: Adobe Illustrator 16.0.0, SVG Export Plug-In . SVG Version: 6.00 Build 0)  -->
<!DOCTYPE svg PUBLIC "-//W3C//DTD SVG 1.1//EN" "http://www.w3.org/Graphics/SVG/1.1/DTD/svg11.dtd">
<svg version="1.1" id="All_glyphs" xmlns="http://www.w3.org/2000/svg" xmlns:xlink="http://www.w3.org/1999/xlink" x="0px" y="0px"
	 width="23px" height="168px" viewBox="0 0 23 168" enable-background="new 0 0 23 168" xml:space="preserve">
<path fill="#FFFFFF" d="M21.667,14.895c-0.736,0.321-1.526,0.538-2.356,0.636c0.847-0.5,1.498-1.291,1.804-2.234
	c-0.793,0.462-1.671,0.799-2.605,0.979C17.76,13.491,16.693,13,15.513,13c-2.266,0-4.104,1.809-4.104,4.039
	c0,0.316,0.037,0.625,0.106,0.92c-3.41-0.168-6.435-1.776-8.458-4.22c-0.353,0.597-0.556,1.291-0.556,2.031
	c0,1.401,0.724,2.637,1.825,3.362c-0.672-0.021-1.305-0.203-1.858-0.505c0,0.017,0,0.034,0,0.05c0,1.957,1.415,3.59,3.292,3.961
	C5.417,22.73,5.054,22.78,4.68,22.78c-0.264,0-0.521-0.025-0.772-0.072c0.522,1.604,2.038,2.772,3.833,2.804
	c-1.405,1.084-3.174,1.729-5.096,1.729c-0.331,0-0.658-0.019-0.979-0.057C3.482,28.332,5.639,29,7.957,29
	c7.547,0,11.675-6.155,11.675-11.493c0-0.175-0.004-0.349-0.012-0.523C20.421,16.416,21.116,15.704,21.667,14.895z"/>
<circle cx="169.167" cy="81.25" r="21"/>
<path fill="#FFFFFF" d="M17.167,56.477h-3.142c-0.371,0-0.786,0.494-0.786,1.153v2.293h3.928v3.266h-3.928V73H9.529v-9.811H6.167
	v-3.266h3.363V58c0-2.757,1.895-5,4.495-5h3.142V56.477z"/>
<path fill="#FFFFFF" d="M10.243,108.389c-0.541,2.892-1.2,5.663-3.154,7.111c-0.603-4.37,0.886-7.651,1.577-11.136
	c-1.179-2.026,0.142-6.104,2.628-5.099c3.059,1.236-2.649,7.532,1.183,8.318c4.001,0.821,5.634-7.087,3.153-9.659
	c-3.584-3.714-10.434-0.085-9.592,5.231c0.205,1.301,1.521,1.695,0.525,3.488c-2.294-0.519-2.979-2.366-2.89-4.829
	c0.141-4.031,3.547-6.854,6.963-7.245c4.32-0.493,8.375,1.62,8.935,5.77c0.631,4.683-1.95,9.756-6.569,9.391
	C11.75,109.632,11.225,108.998,10.243,108.389z"/>
<path fill="#FFFFFF" d="M2.728,141.987c0,1.697,0.557,2.922,1.654,3.642c0.898,0.59,1.942,0.678,2.484,0.678
	c0.131,0,0.237-0.004,0.311-0.01c0,0-0.172,1.14,0.659,2.269l-0.038,0c-1.438,0-6.13,0.306-6.13,4.233c0,3.997,4.31,4.2,5.173,4.2
	c0.068,0,0.108-0.002,0.108-0.002c0.01,0,0.071,0.003,0.177,0.003c0.555,0,1.989-0.071,3.321-0.73
	c1.728-0.854,2.604-2.338,2.604-4.415c0-2.005-1.335-3.199-2.31-4.071c-0.595-0.532-1.109-0.991-1.109-1.437
	c0-0.455,0.375-0.797,0.851-1.23c0.769-0.701,1.493-1.697,1.493-3.581c0-1.655-0.211-2.767-1.51-3.473
	c0.135-0.07,0.614-0.122,0.852-0.155c0.704-0.098,1.734-0.209,1.734-0.794V137H7.917C7.865,137.001,2.728,137.195,2.728,141.987z
	 M11.012,152.229c0.098,1.598-1.244,2.777-3.26,2.927c-2.047,0.152-3.733-0.787-3.832-2.383c-0.047-0.766,0.284-1.519,0.933-2.118
	c0.657-0.606,1.561-0.98,2.542-1.054c0.116-0.007,0.231-0.012,0.346-0.012C9.636,149.589,10.919,150.724,11.012,152.229z
	 M9.671,140.894c0.504,1.803-0.256,3.688-1.468,4.036c-0.14,0.04-0.284,0.06-0.429,0.06c-1.11,0-2.21-1.144-2.617-2.718
	c-0.228-0.885-0.209-1.658,0.052-2.402c0.257-0.731,0.717-1.225,1.297-1.391c0.14-0.041,0.284-0.061,0.43-0.061
	C8.277,138.417,9.138,138.983,9.671,140.894z M18.318,144.82v-3.409h-2.12v3.409h-3.348v2.159h3.348v3.41h2.12v-3.41h3.348v-2.159
	H18.318z"/>
</svg>
