<?xml version="1.0" encoding="utf-8"?>
<!-- Generator: Adobe Illustrator 16.0.0, SVG Export Plug-In . SVG Version: 6.00 Build 0)  -->
<!DOCTYPE svg PUBLIC "-//W3C//DTD SVG 1.1//EN" "http://www.w3.org/Graphics/SVG/1.1/DTD/svg11.dtd">
<svg version="1.1" id="Warstwa_1" xmlns="http://www.w3.org/2000/svg" xmlns:xlink="http://www.w3.org/1999/xlink" x="0px" y="0px"
	 width="56px" height="51px" viewBox="0 0 56 51" enable-background="new 0 0 56 51" xml:space="preserve">
<g>
	<g>
		<path fill="#1D1D1B" d="M132.166-58.612c-2.447-5.5-7.646-9.054-13.243-9.054c-5.67,0-9.312,2.528-11.424,5.227
			c-2.112-2.699-5.753-5.227-11.424-5.227c-5.596,0-10.795,3.554-13.243,9.054c-2.531,5.685-1.415,12.014,2.984,16.931
			c10.652,11.907,20.065,20.347,20.158,20.431c0.435,0.389,0.979,0.584,1.524,0.584s1.091-0.195,1.525-0.584
			c0.094-0.084,9.506-8.523,20.157-20.431C133.581-46.598,134.697-52.927,132.166-58.612z M125.771-44.748
			c-7.969,8.907-15.221,15.833-18.272,18.672c-3.052-2.839-10.304-9.765-18.272-18.672c-3.204-3.581-4.01-7.951-2.211-11.991
			c1.687-3.789,5.327-6.333,9.06-6.333c7.383,0,9.039,5.501,9.199,6.111c0.251,1.028,1.17,1.75,2.225,1.75
			c1.056,0,1.976-0.723,2.226-1.75c0.062-0.25,1.578-6.111,9.198-6.111c3.733,0,7.374,2.544,9.061,6.333
			C129.781-52.699,128.976-48.329,125.771-44.748z M118.899-60.569c-1.257-0.174-2.408,0.709-2.579,1.965
			c-0.171,1.257,0.707,2.415,1.961,2.586c0.118,0.017,2.939,0.448,3.208,4.49c0.079,1.213,1.086,2.144,2.283,2.144
			c0.051,0,0.102-0.001,0.153-0.004c1.263-0.085,2.218-1.178,2.134-2.444C125.649-58.025,121.197-60.255,118.899-60.569z
			 M121-48.391c-0.602,0-1.191,0.247-1.621,0.672c-0.425,0.424-0.67,1.016-0.67,1.625c0,0.602,0.245,1.193,0.67,1.624
			c0.43,0.426,1.02,0.673,1.621,0.673c0.601,0,1.19-0.248,1.62-0.673c0.424-0.43,0.671-1.022,0.671-1.624
			c0-0.61-0.247-1.202-0.671-1.625C122.19-48.144,121.601-48.391,121-48.391z"/>
	</g>
</g>
<g>
	<g>
		<path fill="#1D1D1B" d="M43.208,1H12.791C10.184,1,8.5,2.562,8.5,4.978v41.044C8.5,48.441,10.184,50,12.791,50h30.417
			c2.608,0,4.292-1.56,4.292-3.979V4.978C47.5,2.562,45.816,1,43.208,1z M44.222,46.022c0,0.446,0,0.797-1.014,0.797H12.791
			c-1.014,0-1.014-0.351-1.014-0.797V4.978c0-0.445,0-0.796,1.014-0.796h30.417c1.014,0,1.014,0.351,1.014,0.796V46.022z
			 M41.021,6.741H14.979c-0.604,0-1.093,0.476-1.093,1.06v32.036c0,0.585,0.489,1.061,1.093,1.061h26.043
			c0.603,0,1.091-0.476,1.091-1.061V7.8C42.112,7.216,41.624,6.741,41.021,6.741z M39.928,38.776H16.071V8.862h23.856V38.776z
			 M26.646,42.605c-0.354,0.343-0.558,0.821-0.558,1.314c0,0.487,0.203,0.966,0.558,1.312C27,45.574,27.492,45.776,28,45.776
			c0.503,0,0.995-0.202,1.351-0.545c0.354-0.346,0.563-0.824,0.563-1.312s-0.208-0.972-0.563-1.314
			C28.639,41.916,27.356,41.916,26.646,42.605z"/>
	</g>
</g>
<path fill="#1D1D1B" d="M82.828,27.027c-0.557,0-1.12-0.148-1.631-0.458c-1.491-0.901-1.969-2.842-1.066-4.333l7.236-11.955
	c0.545-0.9,1.504-1.472,2.557-1.519c1.038-0.048,2.057,0.432,2.683,1.28l2.938,3.984l6.426-10.754
	c0.539-0.901,1.488-1.475,2.535-1.533c1.06-0.057,2.056,0.41,2.69,1.245l5.572,7.349l14.881-24.35
	c0.91-1.488,2.852-1.958,4.338-1.048c1.488,0.909,1.957,2.852,1.047,4.339l-17.295,28.298c-0.543,0.892-1.492,1.454-2.533,1.507
	c-1.031,0.054-2.043-0.414-2.674-1.246l-5.542-7.31l-6.462,10.813c-0.542,0.907-1.501,1.483-2.556,1.533
	c-1.044,0.06-2.065-0.429-2.692-1.279l-2.955-4.007l-4.794,7.92C84.938,26.484,83.896,27.027,82.828,27.027z"/>
</svg>
