<?xml version="1.0" encoding="utf-8"?>
<svg xmlns="http://www.w3.org/2000/svg"
	xmlns:xlink="http://www.w3.org/1999/xlink"
	width="24px" height="18px" viewBox="0 0 24 18">
<path fillRule="evenodd" d="M 0.17 13.33C 0.17 13.33 3.33 14.78 4.65 14.78 4.65 14.78 7.15 15.46 8.81 13.3 8.81 13.3 9.21 12.7 8.66 12.42 8.66 12.42 3.27 10.83 3.65 9.9 3.65 9.9 3.63 9.37 4.32 9.49 4.32 9.49 5.1 8.72 4.72 8.48 4.72 8.48 4.12 7.7 4.6 7.65 4.6 7.65 5.82 7.98 6.27 8.1 6.27 8.1 6.58 7.99 6.3 7.78 6.01 7.56 5.5 7.14 5.6 7.04 5.6 7.04 5.8 6.58 6.56 6.91 6.56 6.91 6.8 6.86 6.58 6.62 6.58 6.62 6.03 6.24 6.34 5.93 6.34 5.93 7.22 5.3 9.44 8 9.44 8 9.85 8.55 9.9 8.02 9.9 8.02 11.51 1.16 14.12 0.7 14.12 0.7 14.95 0.87 15.12 0.61 15.12 0.61 15.84 0.32 16.08 0.56 16.08 0.56 16.32 0.92 16.61 0.7 16.61 0.7 17.64 0.3 17.33 0.96 17.33 0.96 16.27 1.91 15.91 1.94 15.55 1.96 15.62 2.3 15.93 2.34 15.93 2.34 20.31 2.73 20.31 5.93 20.31 5.93 20.56 6.69 21.37 5.9 21.37 5.9 22.6 5.12 22.91 5.08 22.91 5.08 23.25 4.87 23.2 5.37 23.2 5.37 22.32 6.9 21.41 7.33 21.41 7.33 20.86 8.03 21.65 7.88 21.65 7.88 22.41 7.72 22.77 7.51 22.77 7.51 23.7 7.05 23.27 7.87 23.27 7.87 21.31 9.14 20.88 9.14 20.88 9.14 20.59 9.21 20.59 9.48 20.59 9.48 20.33 17.84 9.38 17.84 9.38 17.84 3.9 18.16 0.31 13.95 0.31 13.95-0.38 13.21 0.17 13.33Z" fill="rgb(235,235,235)"/></svg>